<?xml version="1.0" encoding="UTF-8"?>
<!-- Created with Inkscape (http://www.inkscape.org/) -->
<svg width="384" height="297.33" version="1.1" viewBox="0 0 384 297.33" xml:space="preserve" xmlns="http://www.w3.org/2000/svg" xmlns:xlink="http://www.w3.org/1999/xlink"><defs><clipPath id="clipPath2021"><path d="m0 223h288v-223h-288z"/></clipPath></defs><g transform="matrix(1.3333 0 0 -1.3333 0 297.33)"><g transform="translate(-.85769 2.1442)"><g clip-path="url(#clipPath2021)"><g transform="translate(197.14 74.574)" fill="#a94025"><path d="m0 0c0-2.184-1.787-3.971-3.972-3.971h-25.932c-2.184 0-3.971 1.787-3.971 3.971v30.851c0 2.184 1.787 3.97 3.971 3.97h25.932c2.185 0 3.972-1.786 3.972-3.97zm-16.937-11.457c-1.374 0-2.488 1.113-2.488 2.487 0 1.373 1.114 2.487 2.488 2.487 1.373 0 2.486-1.114 2.486-2.487 0-1.374-1.113-2.487-2.486-2.487m-10.795 83.271 21.589-12.465-21.589-12.465zm34.583-30.729c6.821 3.663 11.971 11.412 11.971 20.71 0 14.229-12.25 25.641-27.7 25.641h-41.203v-105.66h42.595c22.549 0 33.129 15.076 33.129 30.854 0 12.962-4.455 22.26-18.792 28.459" fill="#a94025"/></g><g transform="translate(126.84 84.639)" fill="#a94025"><path d="m0 0h-0.01c0-0.137-0.094-0.251-0.23-0.272l-4.389-0.732c-0.554-0.094-0.993-0.502-1.129-1.034-0.396-1.536-1.003-3.01-1.818-4.379-0.282-0.479-0.261-1.076 0.063-1.535l2.581-3.637c0.073-0.104 0.063-0.261-0.031-0.355l-3.115-3.115c-0.072-0.072-0.146-0.083-0.198-0.083-0.062 0-0.115 0.021-0.157 0.052l-3.625 2.581c-0.45 0.324-1.056 0.346-1.536 0.063-1.369-0.815-2.843-1.421-4.379-1.818-0.543-0.135-0.951-0.586-1.034-1.129l-0.742-4.388c-0.021-0.136-0.136-0.231-0.272-0.231h-4.399c-0.136 0-0.251 0.095-0.272 0.231l-0.731 4.388c-0.094 0.554-0.502 0.994-1.035 1.129-1.494 0.387-2.936 0.983-4.284 1.755-0.219 0.126-0.47 0.189-0.71 0.189-0.283 0-0.575-0.084-0.816-0.261l-3.656-2.603c-0.053-0.031-0.105-0.051-0.158-0.051-0.041 0-0.125 0.01-0.198 0.083l-3.114 3.114c-0.094 0.094-0.105 0.24-0.031 0.355l2.57 3.605c0.324 0.46 0.345 1.066 0.063 1.547-0.815 1.358-1.442 2.831-1.839 4.367-0.146 0.533-0.585 0.941-1.128 1.035l-4.421 0.752c-0.135 0.022-0.23 0.136-0.23 0.273v4.398c0 0.136 0.095 0.251 0.23 0.271l4.358 0.732c0.553 0.094 1.003 0.502 1.139 1.046 0.386 1.535 0.982 3.019 1.787 4.388 0.282 0.48 0.25 1.077-0.074 1.526l-2.601 3.657c-0.074 0.105-0.063 0.261 0.031 0.356l3.114 3.113c0.073 0.073 0.146 0.084 0.198 0.084 0.063 0 0.115-0.022 0.157-0.053l3.605-2.57c0.46-0.324 1.066-0.345 1.547-0.063 1.358 0.816 2.831 1.442 4.367 1.839 0.533 0.147 0.941 0.585 1.035 1.129l0.752 4.42c0.021 0.136 0.136 0.229 0.272 0.229h4.399c0.136 0 0.251-0.093 0.272-0.229l0.731-4.357c0.094-0.554 0.502-1.003 1.045-1.14 1.578-0.397 3.083-1.014 4.483-1.839 0.48-0.282 1.076-0.261 1.536 0.063l3.605 2.591c0.052 0.032 0.104 0.053 0.156 0.053 0.042 0 0.126-0.011 0.199-0.084l3.114-3.114c0.094-0.094 0.105-0.24 0.031-0.355l-2.58-3.626c-0.325-0.449-0.346-1.055-0.063-1.536 0.815-1.369 1.421-2.843 1.818-4.378 0.136-0.544 0.585-0.951 1.129-1.035l4.389-0.742c0.135-0.021 0.229-0.136 0.229-0.272zm-39.104 61.709 2.247-4.523c2.484-0.978 5.021 0.283 5.743 2.853l-2.094 4.216c1.247-0.184 2.447-0.756 3.407-1.716 1.651-1.65 2.154-4.013 1.513-6.098l5.247-5.247 8.435 8.434c0.148 0.934 0.599 1.827 1.348 2.517 1.575 1.45 3.931 1.518 5.579 0.266l-3.298-1.473c-0.771-1.746 0.055-3.595 1.87-4.186l3.073 1.372c-0.168-0.885-0.612-1.726-1.326-2.384-1.14-1.05-2.69-1.375-4.083-1l-7.572-7.572 8.434-8.434c0.934-0.149 1.826-0.599 2.516-1.349 1.451-1.574 1.518-3.931 0.266-5.578l-1.472 3.297c-1.746 0.771-3.595-0.055-4.187-1.87l1.373-3.073c-0.886 0.169-1.727 0.612-2.384 1.326-1.051 1.14-1.375 2.69-1 4.084l-7.572 7.572-5.247-5.247c0.641-2.085 0.138-4.448-1.513-6.098-2.117-2.118-5.407-2.347-7.781-0.693l4.523 2.247c0.978 2.484-0.282 5.022-2.853 5.743v1e-3l-4.216-2.095c0.185 1.247 0.757 2.448 1.716 3.408 1.651 1.65 4.013 2.154 6.099 1.513l5.246 5.246-5.246 5.247c-2.086-0.641-4.448-0.137-6.099 1.513-2.117 2.118-2.347 5.407-0.692 7.781m10.101 15.723c-15.639 0.023-28.053-11.371-28.074-25.6-0.013-9.299 5.188-17.055 12.086-20.728-14.52-6.178-19.042-15.47-19.06-28.431-0.023-15.779 10.662-30.869 33.486-30.902l43.11-0.063 0.153 105.66z" fill="#a94025"/></g><g fill="#431613"><g transform="translate(185.87 161.23)"><path d="m0 0-15.813 6.617c-1.013 0.424-2.154 0.65-3.319 0.659l-9.518 0.074c1.43-1.249 1.876-4.078 0.514-5.968l-4.759-6.603-2.718-3.773 4.6 3.578c2.358 1.833 5.659 2.811 9.036 2.676l20.553-0.823c2.693-0.108 3.768 2.583 1.424 3.563" fill="#431613"/></g><g transform="translate(138.65 149.41)"><path d="m0 0v-93.203h9.614v93.203h-8.303z" fill="#431613"/></g><g transform="translate(130.09 162.31)"><path d="m0 0c-1.444 1.175-1.439 2.783-0.796 3.979-5.217-0.108-10.086 0.646-14.485 2.935-3.526-5.344-3.526-10.688 0-16.033 7.052 2.672 14.105 2.672 21.157 0-0.058 1.198-0.343 2.281-0.795 3.274-1.057 2.324-3.019 4.161-5.081 5.845" fill="#431613"/></g><g transform="translate(114.81 169.86)"><path d="m0 0h-12.578v-17h12.578v16.359z" fill="#431613"/></g><g transform="translate(157.73 162.62)"><path d="m0 0c1.361 1.89 0.916 4.718-0.515 5.968-0.451 0.394-0.998 0.635-1.62 0.635h-24.282c-0.994 0-1.799-0.605-2.318-1.489-0.836-1.426-0.923-3.579 0.183-5.114l4.759-6.603 2.034-2.823 1.853-2.571c0.556-0.772 1.328-1.209 2.134-1.209h6.992c0.806 0 1.578 0.437 2.134 1.209l1.168 1.621 2.719 3.773z" fill="#431613"/></g></g></g></g></g></svg>
