<?xml version="1.0" encoding="UTF-8" standalone="no"?>
<!-- Generator: Adobe Illustrator 22.0.1, SVG Export Plug-In . SVG Version: 6.00 Build 0)  -->

<svg
   version="1.1"
   x="0px"
   y="0px"
   viewBox="0 0 60 48"
   style="enable-background:new 0 0 60 48;"
   xml:space="preserve"
   id="svg1408"
   sodipodi:docname="dots3.svg"
   inkscape:version="1.1.1 (3bf5ae0d25, 2021-09-20)"
   xmlns:inkscape="http://www.inkscape.org/namespaces/inkscape"
   xmlns:sodipodi="http://sodipodi.sourceforge.net/DTD/sodipodi-0.dtd"
   xmlns="http://www.w3.org/2000/svg"
   xmlns:svg="http://www.w3.org/2000/svg"><defs
   id="defs1412" /><sodipodi:namedview
   id="namedview1410"
   pagecolor="#505050"
   bordercolor="#eeeeee"
   borderopacity="1"
   inkscape:pageshadow="0"
   inkscape:pageopacity="0"
   inkscape:pagecheckerboard="0"
   showgrid="true"
   inkscape:zoom="16.3125"
   inkscape:cx="30.007663"
   inkscape:cy="19.095785"
   inkscape:window-width="1920"
   inkscape:window-height="1001"
   inkscape:window-x="-9"
   inkscape:window-y="-9"
   inkscape:window-maximized="1"
   inkscape:current-layer="svg1408"><inkscape:grid
     type="xygrid"
     id="grid1494" /></sodipodi:namedview>
<style
   type="text/css"
   id="style1277">
	.st0{display:none;}
	.st1{display:inline;}
	.st2{fill:#A94025;}
	.st3{fill:#431613;}
	.st4{fill:#EDA953;}
</style>
<g
   id="dots1"
   class="st0">
	<g
   class="st1"
   id="g1319">
		<circle
   class="st2"
   cx="4.8"
   cy="4"
   r="2"
   id="circle1279" />
		<circle
   class="st2"
   cx="16.8"
   cy="4"
   r="2"
   id="circle1281" />
		<circle
   class="st2"
   cx="28.8"
   cy="4"
   r="2"
   id="circle1283" />
		<circle
   class="st2"
   cx="40.8"
   cy="4"
   r="2"
   id="circle1285" />
		<circle
   class="st2"
   cx="52.8"
   cy="4"
   r="2"
   id="circle1287" />
		<circle
   class="st2"
   cx="4.8"
   cy="16"
   r="2"
   id="circle1289" />
		<circle
   class="st2"
   cx="16.8"
   cy="16"
   r="2"
   id="circle1291" />
		<circle
   class="st2"
   cx="28.8"
   cy="16"
   r="2"
   id="circle1293" />
		<circle
   class="st2"
   cx="40.8"
   cy="16"
   r="2"
   id="circle1295" />
		<circle
   class="st2"
   cx="52.8"
   cy="16"
   r="2"
   id="circle1297" />
		<circle
   class="st2"
   cx="4.8"
   cy="28"
   r="2"
   id="circle1299" />
		<circle
   class="st2"
   cx="16.8"
   cy="28"
   r="2"
   id="circle1301" />
		<circle
   class="st2"
   cx="28.8"
   cy="28"
   r="2"
   id="circle1303" />
		<circle
   class="st2"
   cx="40.8"
   cy="28"
   r="2"
   id="circle1305" />
		<circle
   class="st2"
   cx="52.8"
   cy="28"
   r="2"
   id="circle1307" />
		<circle
   class="st2"
   cx="4.8"
   cy="40"
   r="2"
   id="circle1309" />
		<circle
   class="st2"
   cx="16.8"
   cy="40"
   r="2"
   id="circle1311" />
		<circle
   class="st2"
   cx="28.8"
   cy="40"
   r="2"
   id="circle1313" />
		<circle
   class="st2"
   cx="40.8"
   cy="40"
   r="2"
   id="circle1315" />
		<circle
   class="st2"
   cx="52.8"
   cy="40"
   r="2"
   id="circle1317" />
	</g>
</g>
<g
   id="dots2"
   class="st0">
	<g
   class="st1"
   id="g1362">
		<circle
   class="st3"
   cx="4.8"
   cy="4"
   r="2"
   id="circle1322" />
		<circle
   class="st3"
   cx="16.8"
   cy="4"
   r="2"
   id="circle1324" />
		<circle
   class="st3"
   cx="28.8"
   cy="4"
   r="2"
   id="circle1326" />
		<circle
   class="st3"
   cx="40.8"
   cy="4"
   r="2"
   id="circle1328" />
		<circle
   class="st3"
   cx="52.8"
   cy="4"
   r="2"
   id="circle1330" />
		<circle
   class="st3"
   cx="4.8"
   cy="16"
   r="2"
   id="circle1332" />
		<circle
   class="st3"
   cx="16.8"
   cy="16"
   r="2"
   id="circle1334" />
		<circle
   class="st3"
   cx="28.8"
   cy="16"
   r="2"
   id="circle1336" />
		<circle
   class="st3"
   cx="40.8"
   cy="16"
   r="2"
   id="circle1338" />
		<circle
   class="st3"
   cx="52.8"
   cy="16"
   r="2"
   id="circle1340" />
		<circle
   class="st3"
   cx="4.8"
   cy="28"
   r="2"
   id="circle1342" />
		<circle
   class="st3"
   cx="16.8"
   cy="28"
   r="2"
   id="circle1344" />
		<circle
   class="st3"
   cx="28.8"
   cy="28"
   r="2"
   id="circle1346" />
		<circle
   class="st3"
   cx="40.8"
   cy="28"
   r="2"
   id="circle1348" />
		<circle
   class="st3"
   cx="52.8"
   cy="28"
   r="2"
   id="circle1350" />
		<circle
   class="st3"
   cx="4.8"
   cy="40"
   r="2"
   id="circle1352" />
		<circle
   class="st3"
   cx="16.8"
   cy="40"
   r="2"
   id="circle1354" />
		<circle
   class="st3"
   cx="28.8"
   cy="40"
   r="2"
   id="circle1356" />
		<circle
   class="st3"
   cx="40.8"
   cy="40"
   r="2"
   id="circle1358" />
		<circle
   class="st3"
   cx="52.8"
   cy="40"
   r="2"
   id="circle1360" />
	</g>
</g>
<g
   id="dots3"
   transform="translate(2.0229885,1.4099617)">
	<g
   id="g1405">
		<circle
   class="st4"
   cx="4.8000002"
   cy="4"
   r="2"
   id="circle1365" />
		<circle
   class="st4"
   cx="16.799999"
   cy="4"
   r="2"
   id="circle1367" />
		<circle
   class="st4"
   cx="28.799999"
   cy="4"
   r="2"
   id="circle1369" />
		<circle
   class="st4"
   cx="40.799999"
   cy="4"
   r="2"
   id="circle1371" />
		<circle
   class="st4"
   cx="52.799999"
   cy="4"
   r="2"
   id="circle1373" />
		<circle
   class="st4"
   cx="4.8000002"
   cy="16"
   r="2"
   id="circle1375" />
		<circle
   class="st4"
   cx="16.799999"
   cy="16"
   r="2"
   id="circle1377" />
		<circle
   class="st4"
   cx="28.799999"
   cy="16"
   r="2"
   id="circle1379" />
		<circle
   class="st4"
   cx="40.799999"
   cy="16"
   r="2"
   id="circle1381" />
		<circle
   class="st4"
   cx="52.799999"
   cy="16"
   r="2"
   id="circle1383" />
		<circle
   class="st4"
   cx="4.8000002"
   cy="28"
   r="2"
   id="circle1385" />
		<circle
   class="st4"
   cx="16.799999"
   cy="28"
   r="2"
   id="circle1387" />
		<circle
   class="st4"
   cx="28.799999"
   cy="28"
   r="2"
   id="circle1389" />
		<circle
   class="st4"
   cx="40.799999"
   cy="28"
   r="2"
   id="circle1391" />
		<circle
   class="st4"
   cx="52.799999"
   cy="28"
   r="2"
   id="circle1393" />
		<circle
   class="st4"
   cx="4.8000002"
   cy="40"
   r="2"
   id="circle1395" />
		<circle
   class="st4"
   cx="16.799999"
   cy="40"
   r="2"
   id="circle1397" />
		<circle
   class="st4"
   cx="28.799999"
   cy="40"
   r="2"
   id="circle1399" />
		<circle
   class="st4"
   cx="40.799999"
   cy="40"
   r="2"
   id="circle1401" />
		<circle
   class="st4"
   cx="52.799999"
   cy="40"
   r="2"
   id="circle1403" />
	</g>
</g>
</svg>
