<?xml version="1.0" encoding="utf-8"?>
<!-- Generator: Adobe Illustrator 22.0.1, SVG Export Plug-In . SVG Version: 6.00 Build 0)  -->
<svg version="1.1" xmlns="http://www.w3.org/2000/svg" xmlns:xlink="http://www.w3.org/1999/xlink" x="0px" y="0px"
	 viewBox="0 0 60 48" style="enable-background:new 0 0 60 48;" xml:space="preserve">
<style type="text/css">
	.st0{display:none;}
	.st1{display:inline;}
	.st2{fill:#A94025;}
	.st3{fill:#431613;}
	.st4{fill:#EDA953;}
</style>
<g id="dots1" class="st0">
	<g class="st1">
		<circle class="st2" cx="4.8" cy="4" r="2"/>
		<circle class="st2" cx="16.8" cy="4" r="2"/>
		<circle class="st2" cx="28.8" cy="4" r="2"/>
		<circle class="st2" cx="40.8" cy="4" r="2"/>
		<circle class="st2" cx="52.8" cy="4" r="2"/>
		<circle class="st2" cx="4.8" cy="16" r="2"/>
		<circle class="st2" cx="16.8" cy="16" r="2"/>
		<circle class="st2" cx="28.8" cy="16" r="2"/>
		<circle class="st2" cx="40.8" cy="16" r="2"/>
		<circle class="st2" cx="52.8" cy="16" r="2"/>
		<circle class="st2" cx="4.8" cy="28" r="2"/>
		<circle class="st2" cx="16.8" cy="28" r="2"/>
		<circle class="st2" cx="28.8" cy="28" r="2"/>
		<circle class="st2" cx="40.8" cy="28" r="2"/>
		<circle class="st2" cx="52.8" cy="28" r="2"/>
		<circle class="st2" cx="4.8" cy="40" r="2"/>
		<circle class="st2" cx="16.8" cy="40" r="2"/>
		<circle class="st2" cx="28.8" cy="40" r="2"/>
		<circle class="st2" cx="40.8" cy="40" r="2"/>
		<circle class="st2" cx="52.8" cy="40" r="2"/>
	</g>
</g>
<g id="dots2">
	<g>
		<circle class="st3" cx="4.8" cy="4" r="2"/>
		<circle class="st3" cx="16.8" cy="4" r="2"/>
		<circle class="st3" cx="28.8" cy="4" r="2"/>
		<circle class="st3" cx="40.8" cy="4" r="2"/>
		<circle class="st3" cx="52.8" cy="4" r="2"/>
		<circle class="st3" cx="4.8" cy="16" r="2"/>
		<circle class="st3" cx="16.8" cy="16" r="2"/>
		<circle class="st3" cx="28.8" cy="16" r="2"/>
		<circle class="st3" cx="40.8" cy="16" r="2"/>
		<circle class="st3" cx="52.8" cy="16" r="2"/>
		<circle class="st3" cx="4.8" cy="28" r="2"/>
		<circle class="st3" cx="16.8" cy="28" r="2"/>
		<circle class="st3" cx="28.8" cy="28" r="2"/>
		<circle class="st3" cx="40.8" cy="28" r="2"/>
		<circle class="st3" cx="52.8" cy="28" r="2"/>
		<circle class="st3" cx="4.8" cy="40" r="2"/>
		<circle class="st3" cx="16.8" cy="40" r="2"/>
		<circle class="st3" cx="28.8" cy="40" r="2"/>
		<circle class="st3" cx="40.8" cy="40" r="2"/>
		<circle class="st3" cx="52.8" cy="40" r="2"/>
	</g>
</g>
<g id="dots3" class="st0">
	<g class="st1">
		<circle class="st4" cx="4.8" cy="4" r="2"/>
		<circle class="st4" cx="16.8" cy="4" r="2"/>
		<circle class="st4" cx="28.8" cy="4" r="2"/>
		<circle class="st4" cx="40.8" cy="4" r="2"/>
		<circle class="st4" cx="52.8" cy="4" r="2"/>
		<circle class="st4" cx="4.8" cy="16" r="2"/>
		<circle class="st4" cx="16.8" cy="16" r="2"/>
		<circle class="st4" cx="28.8" cy="16" r="2"/>
		<circle class="st4" cx="40.8" cy="16" r="2"/>
		<circle class="st4" cx="52.8" cy="16" r="2"/>
		<circle class="st4" cx="4.8" cy="28" r="2"/>
		<circle class="st4" cx="16.8" cy="28" r="2"/>
		<circle class="st4" cx="28.8" cy="28" r="2"/>
		<circle class="st4" cx="40.8" cy="28" r="2"/>
		<circle class="st4" cx="52.8" cy="28" r="2"/>
		<circle class="st4" cx="4.8" cy="40" r="2"/>
		<circle class="st4" cx="16.8" cy="40" r="2"/>
		<circle class="st4" cx="28.8" cy="40" r="2"/>
		<circle class="st4" cx="40.8" cy="40" r="2"/>
		<circle class="st4" cx="52.8" cy="40" r="2"/>
	</g>
</g>
</svg>
